<?xml version="1.0" standalone="no"?>
<!DOCTYPE svg PUBLIC "-//W3C//DTD SVG 20010904//EN"
 "http://www.w3.org/TR/2001/REC-SVG-20010904/DTD/svg10.dtd">
<svg version="1.0" xmlns="http://www.w3.org/2000/svg"
 width="100.000000pt" height="100.000000pt" viewBox="0 0 100.000000 100.000000"
 preserveAspectRatio="xMidYMid meet">

<g transform="translate(0.000000,100.000000) scale(0.100000,-0.100000)"
fill="#000000" stroke="none">
<path d="M458 917 l-36 -73 24 -42 c13 -23 24 -50 24 -58 0 -17 -162 -334
-170 -334 -3 1 -41 50 -85 110 -44 60 -83 109 -87 110 -6 0 -42 -109 -84 -254
-14 -52 -18 -58 -29 -43 -10 14 -13 -15 -14 -158 l-1 -175 500 0 501 0 -2 169
c-1 128 -4 168 -13 165 -8 -3 -18 16 -28 48 -9 29 -31 99 -48 156 l-31 104
-85 -114 c-47 -62 -89 -114 -93 -116 -10 -3 -171 310 -171 332 0 9 11 35 24
58 l24 42 -36 73 c-20 40 -39 73 -42 73 -3 0 -22 -33 -42 -73z m59 -49 c9 -21
-3 -68 -18 -68 -15 0 -26 46 -16 68 13 28 21 28 34 0z m69 -341 l81 -162 -79
-105 c-44 -58 -83 -105 -88 -105 -10 0 -160 200 -160 212 0 11 154 322 160
322 3 0 42 -73 86 -162z m-367 -84 l61 -82 -53 -107 -53 -106 -56 66 c-50 58
-56 69 -49 93 17 57 62 208 67 222 6 17 4 19 83 -86z m686 -40 l38 -121 -58
-66 c-32 -36 -59 -65 -61 -63 -1 1 -24 48 -52 103 l-51 102 67 90 c37 50 70
87 73 84 4 -4 23 -62 44 -129z m-520 -180 l67 -88 -112 -3 c-62 -1 -115 -1
-117 1 -5 6 80 177 88 177 4 0 37 -39 74 -87z m353 1 c24 -48 41 -88 39 -91
-2 -2 -55 -2 -117 -1 l-112 3 67 88 c37 48 70 87 74 87 4 0 26 -39 49 -86z
m241 -76 c1 -15 -8 -18 -55 -18 l-55 0 43 51 42 50 12 -33 c7 -18 13 -41 13
-50z m-886 27 l38 -45 -56 0 c-30 0 -55 3 -55 6 0 16 24 84 29 84 4 0 24 -20
44 -45z m897 -110 l0 -25 -490 0 -490 0 0 25 0 25 490 0 490 0 0 -25z"/>
<path d="M274 635 c-4 -15 -1 -32 7 -41 11 -14 13 -14 22 1 10 19 1 65 -13 65
-5 0 -12 -11 -16 -25z"/>
<path d="M694 636 c-3 -14 -2 -32 3 -41 9 -15 11 -15 22 -1 14 17 7 66 -9 66
-5 0 -12 -11 -16 -24z"/>
</g>
</svg>
